User Type,Username,Date,Text
,Zaime,2010-11-02T13:05Z,"Resolution is only 720p, but hey, 720 is ok.

Format                           : MPEG-4
Format profile                   : Base Media / Version 2
Codec ID                         : mp42
File size                        : 556 MiB
Duration                         : 34mn 31s
Overall bit rate                 : 2 250 Kbps
Encoded date                     : UTC 2010-10-22 17:23:32
Tagged date                      : UTC 2010-10-22 17:23:32
gsst                             : 0
gstd                             : 2071688
gssd                             : BD075E846HH1288467438435622
gshh                             : v11.lscache5.c.youtube.com

Video
ID                               : 1
Format                           : AVC
Format/Info                      : Advanced Video Codec
Format profile                   : High@L3.1
Format settings, CABAC           : Yes
Format settings, ReFrames        : 1 frame
Codec ID                         : avc1
Codec ID/Info                    : Advanced Video Coding
Duration                         : 34mn 31s
Bit rate mode                    : Variable
Bit rate                         : 2 117 Kbps
Maximum bit rate                 : 8 653 Kbps
Width                            : 1 280 pixels
Height                           : 720 pixels
Display aspect ratio             : 16:9
Frame rate mode                  : Variable
Frame rate                       : 23.976 fps
Minimum frame rate               : 17.241 fps
Maximum frame rate               : 24.390 fps
Color space                      : YUV
Chroma subsampling               : 4:2:0
Bit depth                        : 8 bits
Scan type                        : Progressive
Bits/(Pixel*Frame)               : 0.096
Stream size                      : 523 MiB (94%)
Tagged date                      : UTC 2010-10-22 17:24:38

Audio
ID                               : 2
Format                           : AAC
Format/Info                      : Advanced Audio Codec
Format version                   : Version 4
Format profile                   : LC
Format settings, SBR             : No
Codec ID                         : 40
Duration                         : 34mn 31s
Bit rate mode                    : Variable
Bit rate                         : 128 Kbps
Maximum bit rate                 : 175 Kbps
Channel(s)                       : 2 channels
Channel positions                : Front: L R
Sampling rate                    : 44.1 KHz
Stream size                      : 31.5 MiB (6%)
Title                            : (C) 2007 Google Inc. v08.13.2007.
Encoded date                     : UTC 2010-10-22 17:24:06
Tagged date                      : UTC 2010-10-22 17:24:38"
,joej191,2010-11-03T22:37Z,"Thanks @Zaime  
This is my 1st torrent.
better 1s are coming soon."
[T],Zverik,2010-12-06T09:11Z,Subtitles (with lyrics): http://www.addic7ed.com/film/Kanye_West_-_Runaway_(2010)-Download
,scalpem,2010-12-15T04:00Z,"soo...1080p is NOT the same as 720p... just clarifying. 720 is still amazing though; haven't seen it yet, but thanks a ton! i assume you got it from youtube?"
,jeffreydope,2010-12-16T09:01Z,SO IF I DOWNLOAD THIS AND PUT IT ON MY BLACKBERRY CAN I WATCH IT?
,EazyBalint,2011-01-08T03:39Z,"This wideo is 720p, but why that title with ""1080p"" ?????????"
,EazyBalint,2011-01-08T03:40Z,"Good words ""scalpem"" :) :D"
